<svg width="25.494263" height="23.664917" viewBox="0 0 25.4943 23.6649" fill="none" xmlns="http://www.w3.org/2000/svg" xmlns:xlink="http://www.w3.org/1999/xlink">
	<desc>
			Created with Pixso.
	</desc>
	<defs/>
	<path id="Vector" d="M7.14 13.6L10.91 9.83L2.66 1.59C2.02 0.95 0.91 1.12 0.51 1.95C-0.43 3.94 -0.09 6.38 1.55 8.03L7.14 13.6ZM16.18 11.19C18.22 12.14 21.09 11.47 23.21 9.35C25.75 6.8 26.25 3.15 24.29 1.19C22.34 -0.76 18.69 -0.28 16.13 2.27C14.01 4.39 13.34 7.26 14.29 9.3L2.21 21.38C1.96 21.63 1.82 21.96 1.82 22.32C1.82 22.67 1.96 23.01 2.21 23.26C2.46 23.51 2.8 23.65 3.15 23.65C3.5 23.65 3.84 23.51 4.09 23.26L12.34 15.03L20.58 23.27C20.7 23.39 20.85 23.49 21.01 23.56C21.17 23.63 21.35 23.66 21.52 23.66C21.7 23.66 21.87 23.63 22.03 23.56C22.19 23.49 22.34 23.39 22.46 23.27C22.58 23.15 22.68 23 22.75 22.84C22.82 22.68 22.85 22.51 22.85 22.33C22.85 22.16 22.82 21.98 22.75 21.82C22.68 21.66 22.58 21.51 22.46 21.39L14.22 13.15L16.18 11.19Z" fill="#02E4C0" fill-opacity="1.000000" fill-rule="nonzero"/>
</svg>
