<svg width="41.000000" height="19.000000" viewBox="0 0 41 19" fill="none" xmlns="http://www.w3.org/2000/svg" xmlns:xlink="http://www.w3.org/1999/xlink">
	<desc>
			Created with Pixso.
	</desc>
	<defs/>
	<path id="Vector" d="M31.77 0C29.31 0 26.99 0.98 25.33 2.7L13.32 13.72C12.23 14.85 10.77 15.46 9.22 15.46C6.03 15.46 3.41 12.8 3.41 9.5C3.41 6.19 6.03 3.53 9.22 3.53C10.77 3.53 12.23 4.14 13.39 5.35L15.32 7.11L17.93 4.75L15.75 2.79C14.89 1.9 13.87 1.19 12.75 0.71C11.63 0.24 10.43 -0.01 9.22 0C4.13 0 0 4.27 0 9.5C0 14.72 4.13 19 9.22 19C11.68 19 14 18.01 15.66 16.29L27.67 5.27C28.76 4.14 30.22 3.53 31.77 3.53C34.96 3.53 37.58 6.19 37.58 9.5C37.58 12.8 34.96 15.46 31.77 15.46C30.23 15.46 28.76 14.85 27.6 13.64L25.62 11.86L23.06 14.23L25.24 16.2C26.1 17.09 27.12 17.79 28.24 18.26C29.36 18.74 30.56 18.98 31.77 18.98C36.86 18.98 41 14.72 41 9.5C41 4.2 36.86 0 31.77 0Z" fill="#02E4C0" fill-opacity="1.000000" fill-rule="nonzero"/>
</svg>
