<svg width="29.000000" height="30.000000" viewBox="0 0 29 30" fill="none" xmlns="http://www.w3.org/2000/svg" xmlns:xlink="http://www.w3.org/1999/xlink">
	<desc>
			Created with Pixso.
	</desc>
	<defs/>
	<path id="Vector" d="M12.04 13.39C13.52 15.85 13.31 18.75 11.54 19.92C9.77 21.06 7.13 19.99 5.64 17.53C4.16 15.07 4.39 12.15 6.16 11.01C7.93 9.87 10.57 10.93 12.04 13.39ZM14.5 23.62C17.4 23.62 18.12 22.5 18.12 22.5C18.12 22.5 17.4 25.5 14.5 25.5C11.6 25.5 10.87 22.54 10.87 22.5C10.87 22.5 11.6 23.62 14.5 23.62ZM22.83 11.01C24.6 12.15 24.83 15.07 23.35 17.53C21.86 19.99 19.22 21.06 17.45 19.92C15.68 18.75 15.47 15.85 16.95 13.39C18.42 10.93 21.06 9.87 22.83 11.01ZM14.5 27C18.12 27 26.1 19.29 26.1 13.5C26.1 7.7 20.89 3 14.5 3C8.1 3 2.9 7.7 2.9 13.5C2.9 19.29 10.87 27 14.5 27ZM14.5 0C22.47 0 29 6.06 29 13.5C29 19.62 20.76 30 14.5 30C8.23 30 0 19.62 0 13.5C0 6.06 6.52 0 14.5 0Z" fill="#02E4C0" fill-opacity="1.000000" fill-rule="nonzero"/>
</svg>
